<?xml version="1.0" encoding="UTF-8" standalone="no"?>
<svg
   xmlns:dc="http://purl.org/dc/elements/1.1/"
   xmlns:cc="http://creativecommons.org/ns#"
   xmlns:rdf="http://www.w3.org/1999/02/22-rdf-syntax-ns#"
   xmlns:svg="http://www.w3.org/2000/svg"
   xmlns="http://www.w3.org/2000/svg"
   xmlns:sodipodi="http://sodipodi.sourceforge.net/DTD/sodipodi-0.dtd"
   xmlns:inkscape="http://www.inkscape.org/namespaces/inkscape"
   inkscape:version="1.0 (4035a4f, 2020-05-01)"
   inkscape:export-ydpi="398.77914"
   inkscape:export-xdpi="398.77914"
   inkscape:export-filename="/Users/kunchen/Pictures/numericalEFT.png"
   sodipodi:docname="icon.svg"
   id="svg1644"
   version="1.1"
   style="fill:none"
   height="283.64038"
   width="326.6933"
   y="0"
   x="0">
  <metadata
     id="metadata1650">
    <rdf:RDF>
      <cc:Work
         rdf:about="">
        <dc:format>image/svg+xml</dc:format>
        <dc:type
           rdf:resource="http://purl.org/dc/dcmitype/StillImage" />
        <dc:title></dc:title>
      </cc:Work>
    </rdf:RDF>
  </metadata>
  <defs
     id="defs1648" />
  <sodipodi:namedview
     inkscape:current-layer="g1632"
     inkscape:window-maximized="1"
     inkscape:window-y="25"
     inkscape:window-x="50"
     inkscape:cy="101.13763"
     inkscape:cx="340.88526"
     inkscape:zoom="1.6555891"
     fit-margin-bottom="20"
     fit-margin-right="20"
     fit-margin-left="20"
     fit-margin-top="10"
     showgrid="false"
     id="namedview1646"
     inkscape:window-height="1027"
     inkscape:window-width="1870"
     inkscape:pageshadow="2"
     inkscape:pageopacity="1"
     guidetolerance="10"
     gridtolerance="10"
     objecttolerance="10"
     borderopacity="1"
     bordercolor="#666666"
     pagecolor="#ffffff" />
  <svg
     transform="translate(-13.283722,8.9921836)"
     height="100%"
     width="100%"
     id="svg1574"
     version="1.1" />
  <svg
     transform="translate(-13.283722,8.9921836)"
     height="100%"
     width="100%"
     id="svg1640"
     version="1.1"
     class="role-diagram-draw-area">
    <g
       transform="translate(-16.308394,-7.8521901)"
       id="g1632"
       style="fill:none;stroke:#000000"
       class="shapes-region">
      <g
         transform="translate(10.268247,-9.6642338)"
         style="opacity:1"
         id="g1578"
         class="composite-shape">
        <path
           id="path1576"
           style="stroke:#000000;stroke-width:4"
           d="m 272.73,232.68 c -1.48,4.73 -2.89,9.23 -1.3,10.57 1.59,1.34 5.75,-0.86 10.11,-3.18 4.36,-2.32 8.52,-4.52 10.11,-3.18 1.6,1.34 0.19,5.84 -1.3,10.57 -1.49,4.73 -2.9,9.24 -1.3,10.57 1.59,1.34 5.75,-0.86 10.11,-3.18 4.36,-2.31 8.52,-4.51 10.11,-3.18 1.6,1.34 0.19,5.85 -1.3,10.58 -1.49,4.72 -2.9,9.23 -1.3,10.57 1.59,1.34 5.75,-0.86 10.11,-3.18 4.36,-2.32 8.52,-4.52 10.11,-3.18 0.43,0.35 0.64,0.94 0.69,1.69"
           class="real" />
      </g>
      <g
         transform="translate(18.724453,-11.476278)"
         style="opacity:1"
         id="g1582"
         class="composite-shape">
        <path
           id="path1580"
           style="stroke:#000000;stroke-width:4"
           d="m 87.076058,236.24599 c -3.93,-3.01 -7.69,-5.88 -9.49,-4.84 -1.8,1.05 -1.15,5.7 -0.47,10.59 0.69,4.89 1.33,9.55 -0.47,10.59 -1.8,1.04 -5.55,-1.82 -9.49,-4.84 -3.93,-3.01 -7.68,-5.88 -9.49,-4.84 -1.8,1.05 -1.15,5.7 -0.47,10.59 0.69,4.89 1.34,9.55 -0.47,10.59 -1.8,1.04 -5.55,-1.82 -9.49,-4.84 -3.93,-3.01 -7.68,-5.88 -9.49,-4.84 -1.8,1.05 -1.15,5.7 -0.47,10.59 0.69,4.89 1.34,9.55 -0.46,10.59 -0.49,0.28 -1.11,0.28 -1.83,0.07"
           class="real" />
      </g>
      <g
         transform="translate(15.70438,-6.6441608)"
         style="opacity:1"
         id="g1586"
         class="composite-shape">
        <path
           id="path1584"
           style="stroke:#000000;stroke-width:4"
           d="m 172.17,78.35 c 4.38,-1.8 8.54,-3.52 8.58,-5.6 0.05,-2.08 -4.03,-3.94 -8.32,-5.89 -4.29,-1.95 -8.37,-3.81 -8.32,-5.89 0.04,-2.09 4.21,-3.81 8.58,-5.61 4.37,-1.8 8.53,-3.53 8.58,-5.61 0.04,-2.08 -4.04,-3.94 -8.33,-5.89 -4.28,-1.95 -8.37,-3.81 -8.32,-5.89 0.05,-2.08 4.21,-3.8 8.58,-5.6 4.37,-1.81 8.54,-3.53 8.58,-5.61 0.05,-1.98 -3.64,-3.76 -7.69,-5.61"
           class="real" />
      </g>
      <g
         transform="translate(15.70438,-6.6441608)"
         style="opacity:1"
         id="g1596"
         class="arrow-line">
        <path
           id="path1588"
           style="fill:none;fill-opacity:1;stroke:#000000;stroke-width:4"
           d="M 91.98,222.95 177.5,86.5"
           stroke-dasharray="none"
           class="connection real" />
        <g
           id="g1594">
          <g
             id="g1592"
             style="fill:#000000;stroke:none;stroke-width:4"
             transform="rotate(122.08,24.558778,114.64475)"
             fill="#000"
             stroke="none">
            <path
               id="path1590"
               d="M 15.27,-7.34 0,0 15.27,7.34 Z" />
          </g>
        </g>
      </g>
      <g
         transform="translate(15.70438,-6.6441608)"
         style="opacity:1"
         id="g1606"
         class="arrow-line">
        <path
           id="path1598"
           style="fill:none;fill-opacity:1;stroke:#000000;stroke-width:4"
           d="m 181.5,105.5 80.83,128.83"
           stroke-dasharray="none"
           class="connection real" />
        <g
           id="g1604">
          <g
             id="g1602"
             style="fill:#000000;stroke:none;stroke-width:4"
             transform="rotate(-122.11,157.94495,23.592292)"
             fill="#000"
             stroke="none">
            <path
               id="path1600"
               d="M 15.27,-7.34 0,0 15.27,7.34 Z" />
          </g>
        </g>
      </g>
      <g
         transform="translate(15.70438,-6.6441608)"
         style="opacity:1"
         id="g1616"
         class="arrow-line">
        <path
           id="path1608"
           style="fill:none;fill-opacity:1;stroke:#000000;stroke-width:4"
           d="M 260.5,226.75 77.98,225.95"
           stroke-dasharray="none"
           class="connection real" />
        <g
           id="g1614">
          <g
             id="g1612"
             style="fill:#000000;stroke:none;stroke-width:4"
             transform="rotate(0.25,-51790.684,38900.375)"
             fill="#000"
             stroke="none">
            <path
               id="path1610"
               d="M 15.27,-7.34 0,0 15.27,7.34 Z" />
          </g>
        </g>
      </g>
      <g
         transform="translate(15.70438,-6.6441608)"
         style="opacity:1"
         id="g1620"
         class="composite-shape">
        <path
           id="path1618"
           style="fill:#9558b2;fill-opacity:1;stroke:none;stroke-width:1;stroke-opacity:1"
           d="m 233.25,219.51 c 0,-12.98 10.52,-23.49 23.49,-23.49 12.98,0 23.49,10.51 23.49,23.49 0,12.97 -10.51,23.49 -23.49,23.49 -12.97,0 -23.49,-10.52 -23.49,-23.49 z"
           class="real" />
      </g>
      <g
         transform="translate(15.70438,-6.6441608)"
         style="opacity:1"
         id="g1624"
         class="composite-shape">
        <path
           id="path1622"
           style="fill:#389826;fill-opacity:1;stroke:none;stroke-width:1;stroke-opacity:1"
           d="m 73.68,219.84 c 0,-13.34 10.82,-24.16 24.16,-24.16 13.34,0 24.16,10.82 24.16,24.16 C 122,233.18 111.18,244 97.84,244 84.5,244 73.68,233.18 73.68,219.84 Z"
           class="real" />
      </g>
      <g
         transform="translate(15.70438,-6.6441608)"
         id="g1628"
         class="composite-shape">
        <path
           id="path1626"
           style="opacity:1;fill:#cb3c33;fill-opacity:1;stroke:none;stroke-width:1;stroke-opacity:1"
           d="M 151.81,99.09 C 151.81,86.34 162.15,76 174.91,76 187.66,76 198,86.34 198,99.09 c 0,12.76 -10.34,23.1 -23.09,23.1 -12.76,0 -23.1,-10.34 -23.1,-23.1 z"
           class="real" />
      </g>
      <g
         id="g1630" />
    </g>
    <g
       id="g1634" />
    <g
       id="g1636" />
    <g
       id="g1638" />
  </svg>
  <svg
     transform="translate(-13.283722,8.9921836)"
     id="svg1642"
     version="1.1"
     style="font-family:Asana-Math, Asana"
     height="289"
     width="660" />
</svg>
